<svg width="248" height="249" viewBox="0 0 248 249" fill="none" xmlns="http://www.w3.org/2000/svg">
<path d="M23.4604 48.8415H0V0.823171H23.003C23.186 3.42988 22.5915 6.17378 20.4421 11.2957L21.311 11.7988C27.3933 3.15549 32.7896 0 41.1585 0C49.7104 0 54.1463 4.34451 53.7348 12.2561L54.6494 12.5305C60.0915 3.8872 65.9909 0 75.0915 0C85.0152 0 90 4.89329 90 15.0457V48.8415H66.5854V21.0366C66.5854 17.5152 65.2591 15.8232 62.5152 15.8232C58.811 15.8232 56.7073 19.436 56.7073 26.0671V48.8415H33.2927V21.0366C33.2927 17.5152 32.0122 15.8232 29.3598 15.8232C25.564 15.8232 23.4604 19.436 23.4604 26.0671V48.8415Z" fill="black"/>
<path d="M212.217 248H188V182H212.217V195.86C212.217 200.433 211.32 204.251 209.101 209.249L210.046 209.72C215.002 201.564 221.564 197.651 231.147 197.651C242.194 197.651 248 202.554 248 212.69V248H223.783V219.196C223.783 215.33 222.272 213.491 219.015 213.491C214.625 213.491 212.217 217.687 212.217 225.277V248Z" fill="black"/>
<path d="M221.102 48C202.257 48 194.503 42.7148 194.763 32.7076L216.163 31.7112C215.86 35.0903 217.55 36.6931 221.015 36.6931C223.918 36.6931 225.434 35.9567 225.434 34.4838C225.434 32.5776 222.662 31.4946 216.033 29.935L209.362 28.3321C202.69 26.7726 195.283 23.5235 195.283 15.509C195.283 5.71841 203.124 0 220.452 0C238.474 0 246.315 5.19856 246.142 14.296L225.477 15.3357C225.781 12.3032 224.134 10.917 220.496 10.917C217.94 10.917 216.683 11.6968 216.683 13.1264C216.683 14.5993 218.633 15.5523 225.304 16.9386L232.019 18.3682C238.734 19.7545 247.658 22.5704 247.658 32.1011C247.658 42.3682 239.6 48 221.102 48Z" fill="black"/>
<path d="M24.2424 248.311H0V198.692H23.7698C23.9588 201.386 23.3445 204.221 21.1235 209.514L22.0213 210.034C28.3064 201.102 33.8826 197.842 42.5305 197.842C51.3674 197.842 55.9512 202.331 55.5259 210.506L56.471 210.79C62.0945 201.859 68.1905 197.842 77.5945 197.842C87.8491 197.842 93 202.898 93 213.389V248.311H68.8049V219.58C68.8049 215.941 67.4344 214.192 64.5991 214.192C60.7713 214.192 58.5976 217.926 58.5976 224.778V248.311H34.4024V219.58C34.4024 215.941 33.0793 214.192 30.3384 214.192C26.4162 214.192 24.2424 217.926 24.2424 224.778V248.311Z" fill="black"/>
<path d="M186.938 144.014C165.917 201.699 123.813 239.329 92.8953 228.062C61.9778 216.796 53.955 160.899 74.9759 103.214C95.9968 45.529 138.101 7.89937 169.019 19.166C199.936 30.4326 207.959 86.329 186.938 144.014Z" fill="#FFCD1B"/>
<path d="M110.396 111.553C111.609 109.197 114.502 108.27 116.858 109.483C119.214 110.696 120.141 113.59 118.928 115.946C117.046 119.601 114.047 125.859 112.901 131.597C112.326 134.478 112.323 136.743 112.785 138.315C113.17 139.625 113.876 140.549 115.45 141.169C117.454 141.957 120.041 142.029 123.171 141.462C126.277 140.899 129.441 139.803 132.433 138.708C141.087 135.541 148.839 130.954 157.64 126.373C159.99 125.149 162.888 126.063 164.111 128.414C165.335 130.764 164.422 133.662 162.071 134.885C153.868 139.156 145.159 144.269 135.731 147.719C132.736 148.816 128.883 150.18 124.881 150.905C120.903 151.625 116.289 151.812 111.937 150.099C107.43 148.326 104.743 144.988 103.577 141.021C102.489 137.317 102.777 133.291 103.49 129.718C104.921 122.552 108.487 115.259 110.396 111.553Z" fill="black"/>
<path d="M100.842 88.8061C117.709 88.3689 134.383 88.5259 151.141 88.8052C153.791 88.8494 155.903 91.0334 155.859 93.6831C155.814 96.3329 153.63 98.445 150.981 98.4009C134.255 98.1221 117.746 97.9681 101.09 98.3999C98.441 98.4684 96.238 96.377 96.1691 93.728C96.1004 91.0787 98.1927 88.8748 100.842 88.8061Z" fill="black"/>
</svg>
