<svg width="248" height="248" viewBox="0 0 248 248" fill="none" xmlns="http://www.w3.org/2000/svg">
<path fill-rule="evenodd" clip-rule="evenodd" d="M99.5722 60.1367C118.551 50.9247 121.138 12.2341 140.076 2.88752C154.279 -4.12146 175.998 1.81933 183.649 18.6431C192.673 38.4834 186.089 65.9731 178.123 86.5396C170.344 106.62 144.839 110.298 139.828 131.77C136.929 144.194 159.257 146.241 161.221 158.96C162.729 168.726 148.98 173.212 147.745 183.04C145.271 202.724 159.881 226.044 150.759 242.214C143.704 254.72 126.839 243.373 114.889 241.28C104.819 239.516 95.9156 231.847 85.7828 230.834C74.3704 229.694 63.3344 235.205 51.8886 234.982C35.5696 234.663 13.0422 246.202 3.5518 229.229C-6.10266 211.963 6.11539 186.121 14.205 167.587C21.3646 151.184 42.7406 148.354 46.741 130.28C49.8003 116.458 23.497 103.696 30.7698 92.7443C39.3292 79.8558 61.2724 107.791 70.0639 95.1609C80.204 80.5929 58.2774 50.4332 69.4561 37.1649C78.0962 26.9096 88.5496 65.4868 99.5722 60.1367Z" fill="#FFCD1B"/>
<path fill-rule="evenodd" clip-rule="evenodd" d="M86.8996 106.665C89.9116 108.179 91.096 111.789 89.545 114.729C87.1391 119.289 83.3061 127.096 81.8415 134.256C81.1063 137.85 81.1021 140.676 81.6928 142.638C82.185 144.272 83.0878 145.425 85.0998 146.197C87.6618 147.181 90.9676 147.271 94.9693 146.563C98.9407 145.861 102.985 144.493 106.809 143.127C115.335 140.082 123.175 135.985 131.472 131.651C133.941 130.36 136.452 129.049 139.032 127.738C142.037 126.211 145.741 127.351 147.306 130.284C148.87 133.217 147.702 136.832 144.697 138.359C142.406 139.523 140.085 140.737 137.73 141.968C129.303 146.375 120.445 151.007 111.026 154.372C107.196 155.74 102.271 157.441 97.1557 158.346C92.0706 159.244 86.1718 159.476 80.6081 157.34C74.8473 155.128 71.4126 150.963 69.9223 146.014C68.5306 141.393 68.8988 136.369 69.8106 131.912C71.6398 122.97 76.1984 113.871 78.6378 109.247C80.1887 106.308 83.8876 105.152 86.8996 106.665Z" fill="black"/>
<path fill-rule="evenodd" clip-rule="evenodd" d="M128.707 94.9992C107.132 94.6885 85.8364 94.5168 64.3504 94.9982C60.933 95.0747 58.0907 92.7427 58.0021 89.7895C57.9135 86.8363 60.6121 84.3801 64.0296 84.3036C85.7874 83.8161 107.296 83.9912 128.913 84.3025C132.331 84.3517 135.056 86.7862 134.999 89.74C134.942 92.6938 132.125 95.0485 128.707 94.9992Z" fill="black"/>
</svg>
