<svg width="248" height="248" viewBox="0 0 248 248" fill="none" xmlns="http://www.w3.org/2000/svg">
<path d="M120.85 136.462C108.119 171.398 82.6183 194.189 63.8932 187.365C45.168 180.542 40.309 146.688 53.0403 111.751C65.7715 76.8143 91.272 54.0239 109.997 60.8475C128.722 67.6711 133.581 101.525 120.85 136.462Z" fill="#FFCD1B"/>
<path d="M17.1158 138.81H2.55615V109.009H16.832C16.9455 110.627 16.5765 112.33 15.2426 115.508L15.7819 115.821C19.5566 110.457 22.9056 108.498 28.0994 108.498C33.4067 108.498 36.1597 111.195 35.9042 116.104L36.4719 116.275C39.8492 110.911 43.5104 108.498 49.1583 108.498C55.3171 108.498 58.4106 111.535 58.4106 117.836V138.81H43.8794V121.554C43.8794 119.368 43.0563 118.318 41.3535 118.318C39.0546 118.318 37.749 120.56 37.749 124.676V138.81H23.2178V121.554C23.2178 119.368 22.4231 118.318 20.777 118.318C18.4213 118.318 17.1158 120.56 17.1158 124.676V138.81Z" fill="black"/>
<path d="M224.54 138.81H209.98V99.0757H224.54V107.42C224.54 110.173 224.001 112.472 222.667 115.48L223.235 115.764C226.215 110.854 230.16 108.498 235.921 108.498C242.562 108.498 246.053 111.45 246.053 117.552V138.81H231.494V121.469C231.494 119.141 230.585 118.034 228.627 118.034C225.988 118.034 224.54 120.56 224.54 125.13V138.81Z" fill="black"/>
<path d="M190.114 139.661C177.768 139.661 172.687 136.198 172.858 129.642L186.878 128.99C186.679 131.203 187.786 132.253 190.057 132.253C191.958 132.253 192.952 131.771 192.952 130.806C192.952 129.557 191.135 128.848 186.793 127.826L182.422 126.776C178.051 125.754 173.198 123.626 173.198 118.375C173.198 111.961 178.335 108.214 189.688 108.214C201.494 108.214 206.631 111.62 206.518 117.58L192.98 118.261C193.179 116.275 192.1 115.367 189.716 115.367C188.042 115.367 187.219 115.877 187.219 116.814C187.219 117.779 188.496 118.403 192.866 119.312L197.266 120.248C201.665 121.156 207.511 123.001 207.511 129.245C207.511 135.971 202.232 139.661 190.114 139.661Z" fill="black"/>
<path d="M129.122 138.81H114.562V109.009H128.838C128.952 110.627 128.583 112.33 127.249 115.508L127.788 115.821C131.563 110.457 134.912 108.498 140.106 108.498C145.413 108.498 148.166 111.195 147.911 116.104L148.478 116.275C151.856 110.911 155.517 108.498 161.165 108.498C167.323 108.498 170.417 111.535 170.417 117.836V138.81H155.886V121.554C155.886 119.368 155.063 118.318 153.36 118.318C151.061 118.318 149.755 120.56 149.755 124.676V138.81H135.224V121.554C135.224 119.368 134.429 118.318 132.783 118.318C130.428 118.318 129.122 120.56 129.122 124.676V138.81Z" fill="black"/>
<path d="M74.4925 116.802C75.2273 115.375 76.9796 114.813 78.4066 115.548C79.8336 116.283 80.3942 118.035 79.6595 119.462C78.5197 121.676 76.704 125.466 76.0101 128.942C75.6619 130.686 75.66 132.058 75.9398 133.01C76.173 133.803 76.6008 134.363 77.5541 134.739C78.7678 135.216 80.3341 135.259 82.2298 134.915C84.1114 134.575 86.0271 133.911 87.8392 133.247C93.0805 131.329 97.776 128.552 103.106 125.778C104.529 125.037 106.285 125.589 107.026 127.013C107.767 128.437 107.213 130.192 105.789 130.933C100.821 133.519 95.5469 136.617 89.8373 138.706C88.023 139.37 85.6895 140.196 83.266 140.635C80.8568 141.071 78.0621 141.184 75.4261 140.147C72.6969 139.073 71.0688 137.052 70.3627 134.65C69.7033 132.406 69.878 129.967 70.3099 127.803C71.1766 123.463 73.3368 119.046 74.4925 116.802Z" fill="black"/>
<path d="M68.7061 103.025C78.9215 102.76 89.0204 102.855 99.1699 103.024C100.774 103.051 102.054 104.374 102.027 105.978C102.001 107.583 100.677 108.862 99.0723 108.836C88.9426 108.667 78.9443 108.574 68.8565 108.836C67.252 108.877 65.9176 107.61 65.876 106.006C65.8344 104.401 67.1015 103.067 68.7061 103.025Z" fill="black"/>
</svg>
