<svg width="248" height="248" viewBox="0 0 248 248" fill="none" xmlns="http://www.w3.org/2000/svg">
<path fill-rule="evenodd" clip-rule="evenodd" d="M92.1195 1.09469C117.684 -3.25971 147.2 4.93681 162.686 33.6181C177.388 60.8491 165.902 98.1642 162.779 131.964C160.264 159.182 159.358 186.987 146.587 207.874C132.776 230.463 113.347 245.185 92.1195 247.529C69.1023 250.07 45.4243 242.49 28.2775 220.939C10.327 198.378 -1.58058 165.563 0.170417 131.964C1.835 100.023 20.8465 77.9207 36.9233 55.0388C53.2674 31.7766 68.9312 5.04429 92.1195 1.09469Z" fill="#FFCD1B"/>
<path fill-rule="evenodd" clip-rule="evenodd" d="M66.8996 106.665C69.9116 108.179 71.096 111.789 69.545 114.729C67.1391 119.289 63.3061 127.096 61.8415 134.256C61.1063 137.85 61.1021 140.676 61.6928 142.638C62.185 144.272 63.0878 145.425 65.0998 146.197C67.6618 147.181 70.9676 147.271 74.9693 146.563C78.9407 145.861 82.9846 144.493 86.8094 143.127C95.3345 140.082 103.175 135.985 111.472 131.651C113.941 130.36 116.452 129.049 119.032 127.738C122.037 126.211 125.741 127.351 127.306 130.284C128.87 133.217 127.702 136.832 124.697 138.359C122.406 139.523 120.085 140.737 117.73 141.968C109.303 146.375 100.445 151.007 91.0258 154.372C87.1963 155.74 82.2711 157.441 77.1557 158.346C72.0706 159.244 66.1718 159.476 60.6081 157.34C54.8473 155.128 51.4126 150.963 49.9223 146.014C48.5306 141.393 48.8988 136.369 49.8106 131.912C51.6398 122.97 56.1984 113.871 58.6378 109.247C60.1887 106.308 63.8876 105.152 66.8996 106.665Z" fill="black"/>
<path fill-rule="evenodd" clip-rule="evenodd" d="M108.707 94.9992C87.1315 94.6885 65.8364 94.5168 44.3504 94.9982C40.933 95.0747 38.0907 92.7427 38.0021 89.7895C37.9135 86.8363 40.6121 84.3801 44.0296 84.3036C65.7874 83.8161 87.2958 83.9912 108.913 84.3025C112.331 84.3517 115.056 86.7862 114.999 89.74C114.942 92.6938 112.125 95.0485 108.707 94.9992Z" fill="black"/>
</svg>
