<svg width="133" height="81" viewBox="0 0 133 81" fill="none" xmlns="http://www.w3.org/2000/svg">
<ellipse cx="19.1282" cy="35.628" rx="19.1282" ry="35.628" transform="matrix(0.939937 0.341348 -0.342694 0.939447 40.7217 0.0976562)" fill="#FFCD1B"/>
<path d="M9.78468 48.3413H2.08218V32.576H9.63453C9.69459 33.4318 9.4994 34.3327 8.79372 36.0143L9.07899 36.1795C11.0759 33.3417 12.8477 32.3057 15.5953 32.3057C18.4031 32.3057 19.8595 33.7321 19.7244 36.3296L20.0247 36.4197C21.8114 33.5819 23.7483 32.3057 26.7362 32.3057C29.9944 32.3057 31.631 33.9123 31.631 37.2455V48.3413H23.9435V39.2124C23.9435 38.0563 23.508 37.5007 22.6072 37.5007C21.391 37.5007 20.7003 38.6869 20.7003 40.864V48.3413H13.0128V39.2124C13.0128 38.0563 12.5924 37.5007 11.7216 37.5007C10.4754 37.5007 9.78468 38.6869 9.78468 40.864V48.3413Z" fill="black"/>
<path d="M68.8426 48.3413H61.1401V32.576H68.6925C68.7526 33.4318 68.5574 34.3327 67.8517 36.0143L68.137 36.1795C70.1339 33.3417 71.9056 32.3057 74.6533 32.3057C77.461 32.3057 78.9175 33.7321 78.7823 36.3296L79.0826 36.4197C80.8694 33.5819 82.8062 32.3057 85.7942 32.3057C89.0523 32.3057 90.6889 33.9123 90.6889 37.2455V48.3413H83.0014V39.2124C83.0014 38.0563 82.566 37.5007 81.6651 37.5007C80.4489 37.5007 79.7583 38.6869 79.7583 40.864V48.3413H72.0708V39.2124C72.0708 38.0563 71.6504 37.5007 70.7795 37.5007C69.5333 37.5007 68.8426 38.6869 68.8426 40.864V48.3413ZM101.109 48.7917C94.5777 48.7917 91.8901 46.96 91.9802 43.4916L99.3974 43.1462C99.2923 44.3174 99.8779 44.8729 101.079 44.8729C102.085 44.8729 102.611 44.6177 102.611 44.1072C102.611 43.4465 101.65 43.0712 99.3524 42.5306L97.0401 41.9751C94.7279 41.4346 92.1604 40.3085 92.1604 37.5308C92.1604 34.1375 94.878 32.1555 100.884 32.1555C107.13 32.1555 109.848 33.9573 109.788 37.1104L102.626 37.4707C102.731 36.4197 102.16 35.9392 100.899 35.9392C100.013 35.9392 99.5776 36.2095 99.5776 36.705C99.5776 37.2155 100.253 37.5458 102.565 38.0263L104.893 38.5217C107.22 39.0022 110.313 39.9782 110.313 43.2814C110.313 46.8398 107.52 48.7917 101.109 48.7917ZM119.322 48.3413H111.619V27.3208H119.322V31.7351C119.322 33.1915 119.037 34.4077 118.331 35.9993L118.631 36.1494C120.208 33.5519 122.295 32.3057 125.343 32.3057C128.856 32.3057 130.703 33.8672 130.703 37.0954V48.3413H123V39.1674C123 37.9362 122.52 37.3506 121.484 37.3506C120.088 37.3506 119.322 38.6869 119.322 41.1043V48.3413Z" fill="black"/>
<path d="M41.1646 36.9976C39.9525 39.3495 36.9661 45.6563 40.855 47.1851C42.8878 47.9842 45.4603 47.1121 47.3752 46.4119C50.2663 45.3547 52.8983 43.8051 55.6172 42.391" stroke="black" stroke-width="3.075" stroke-linecap="round"/>
<path d="M36.8691 30.4217C42.197 30.2825 47.4705 30.3323 52.7921 30.4217" stroke="black" stroke-width="3.075" stroke-linecap="round"/>
</svg>
