<svg width="171" height="267" viewBox="0 0 171 267" fill="none" xmlns="http://www.w3.org/2000/svg">
<path d="M155.497 158.614C129.213 230.742 76.5671 277.793 37.9087 263.705C-0.749706 249.618 -10.7812 179.726 15.5027 107.599C41.7867 35.4709 94.4328 -11.5801 133.091 2.50732C171.75 16.5947 181.781 86.486 155.497 158.614Z" fill="#FFCD1B"/>
<path fill-rule="evenodd" clip-rule="evenodd" d="M67.8716 115.438C70.8177 116.955 71.9762 120.573 70.4592 123.519C68.1059 128.089 64.3568 135.913 62.9242 143.088C62.2051 146.69 62.2009 149.522 62.7787 151.488C63.2602 153.126 64.1432 154.281 66.1112 155.056C68.6171 156.042 71.8507 156.131 75.7648 155.422C79.6493 154.719 83.6047 153.348 87.3459 151.979C95.6845 148.927 103.354 144.822 111.469 140.477C113.884 139.184 116.34 137.87 118.864 136.556C121.803 135.026 125.426 136.168 126.956 139.108C128.486 142.047 127.344 145.67 124.405 147.2C122.164 148.367 119.894 149.583 117.59 150.817C109.347 155.234 100.683 159.876 91.4701 163.248C87.7243 164.618 82.9069 166.324 77.9034 167.23C72.9295 168.131 67.1597 168.364 61.7177 166.222C56.0829 164.005 52.7234 159.832 51.2657 154.872C49.9044 150.24 50.2646 145.206 51.1564 140.739C52.9456 131.777 57.4045 122.659 59.7905 118.025C61.3075 115.079 64.9256 113.921 67.8716 115.438Z" fill="#1E1E1E"/>
<path fill-rule="evenodd" clip-rule="evenodd" d="M110.537 101.581C89.6237 101.232 68.9822 101.04 48.1555 101.58C44.8429 101.666 42.0879 99.0497 42.002 95.7371C41.9161 92.4245 44.5319 89.6695 47.8445 89.5837C68.9346 89.0369 89.7829 89.2332 110.737 89.5825C114.05 89.6377 116.691 92.3684 116.636 95.6816C116.581 98.9949 113.85 101.636 110.537 101.581Z" fill="#1E1E1E"/>
</svg>
