<svg width="238" height="262" viewBox="0 0 238 262" fill="none" xmlns="http://www.w3.org/2000/svg">
<g clip-path="url(#clip0_4_56)">
<path d="M0 85.986V176.014C0 190.712 7.71296 204.309 20.5679 211.658L98.4321 256.488C111.287 263.837 126.713 263.837 139.568 256.488L217.432 211.658C230.287 204.309 238 190.712 238 176.014V85.986C238 71.2875 230.287 57.6914 217.432 50.3422L139.568 5.51192C126.713 -1.83731 111.287 -1.83731 98.4321 5.51192L20.5679 50.3422C7.71296 57.6914 0 71.2875 0 85.986Z" fill="#2E85EC"/>
<path d="M150.219 78.2693C150.219 95.54 136.262 109.504 119 109.504C101.738 109.504 87.7809 95.54 87.7809 78.2693C87.7809 60.9986 101.738 47.0351 119 47.0351C136.262 47.0351 150.219 60.9986 150.219 78.2693Z" fill="white"/>
<path d="M150.219 184.098C150.219 201.369 136.262 215.332 119 215.332C101.738 215.332 87.7809 201.369 87.7809 184.098C87.7809 166.827 101.738 152.864 119 152.864C136.262 152.864 150.219 166.827 150.219 184.098Z" fill="white"/>
<path d="M107.981 124.569L73.0895 104.359C52.5216 92.6003 27.179 107.299 27.179 130.816C27.179 154.334 52.5216 169.032 73.0895 157.273L107.981 137.063C112.756 134.491 112.756 127.509 107.981 124.569Z" fill="white"/>
<path d="M130.019 137.431L164.91 157.641C185.111 169.4 210.821 154.701 210.821 131.184C210.821 107.666 185.478 92.9677 164.91 104.727L130.019 124.937C125.244 127.509 125.244 134.491 130.019 137.431Z" fill="white"/>
</g>
<defs>
<clipPath id="clip0_4_56">
<rect width="238" height="262" fill="white"/>
</clipPath>
</defs>
</svg>
