<svg width="100" height="100" viewBox="0 0 100 100" fill="none" xmlns="http://www.w3.org/2000/svg">
<path d="M95.6956 59.5101C95.895 59.1669 96 58.7777 96 58.3815C96 57.9853 95.895 57.5961 95.6956 57.253C94.6902 55.626 93.304 54.2645 91.6551 53.2842V42.4463C93.6528 40.786 95.0174 38.4957 95.5214 35.9571C95.5938 35.568 95.5619 35.1668 95.429 34.7937C95.2961 34.4207 95.0668 34.0889 94.764 33.8317C93.8373 33.0661 92.7859 32.4631 91.6551 32.0486V28.2867C91.6548 25.0211 90.5851 21.8442 88.6074 19.2356C86.6298 16.627 83.8516 14.7283 80.6922 13.8262C81.164 11.7616 82.2143 9.87184 83.7217 8.37525C84.4115 7.66576 84.7932 6.71551 84.7845 5.72916C84.7759 4.74282 84.3776 3.7993 83.6755 3.10182C82.9734 2.40434 82.0236 2.00871 81.0307 2.00014C80.0379 1.99157 79.0813 2.37074 78.3671 3.05599C75.5808 5.8185 73.7383 9.38055 73.0996 13.2393H26.9004C26.2523 9.37646 24.3976 5.81393 21.5988 3.05599C20.8846 2.37074 19.9281 1.99157 18.9352 2.00014C17.9423 2.00871 16.9925 2.40434 16.2904 3.10182C15.5883 3.7993 15.19 4.74282 15.1814 5.72916C15.1728 6.71551 15.5545 7.66576 16.2443 8.37525C17.7516 9.87184 18.8019 11.7616 19.2737 13.8262C16.1207 14.7344 13.35 16.6357 11.3789 19.2438C9.40787 21.8518 8.34309 25.0254 8.34494 28.2867V31.9809C7.2229 32.4043 6.17983 33.0108 5.25868 33.7753C4.95189 34.03 4.7182 34.3607 4.58123 34.7339C4.44426 35.1071 4.40885 35.5096 4.47859 35.9007C4.93778 38.456 6.31085 40.7606 8.34494 42.3899V53.2278C6.66724 54.1691 5.27251 55.5378 4.3044 57.1928C4.10499 57.5359 4 57.9251 4 58.3213C4 58.7175 4.10499 59.1067 4.3044 59.4499C5.27197 61.1062 6.66676 62.4762 8.34494 63.4186V74.2603C6.3111 75.8882 4.93799 78.1915 4.47859 80.7457C4.40815 81.1374 4.44321 81.5407 4.5802 81.9146C4.7172 82.2885 4.95127 82.6198 5.25868 82.8749C6.32196 83.7535 7.54424 84.4226 8.85995 84.8461C9.72282 88.0461 11.6246 90.8737 14.2702 92.8904C16.9158 94.9071 20.1575 96.0002 23.4922 96H76.5078C79.8309 95.9998 83.0617 94.9141 85.7024 92.9101C88.3431 90.9061 90.2471 88.095 91.1211 84.9101C92.4449 84.4856 93.6749 83.814 94.7451 82.9313C95.0478 82.6741 95.2771 82.3423 95.4101 81.9693C95.543 81.5962 95.5749 81.195 95.5025 80.8059C95.0035 78.2699 93.6458 75.9799 91.6551 74.3167V63.4788C93.304 62.4985 94.6902 61.137 95.6956 59.5101Z" fill="#023300"/>
<path d="M76.5078 43.3341H23.4923C21.4836 43.3341 19.5572 44.1268 18.1369 45.5377C16.7166 46.9487 15.9186 48.8624 15.9186 50.8578V80.9526C15.9186 82.948 16.7166 84.8617 18.1369 86.2726C19.5572 87.6836 21.4836 88.4763 23.4923 88.4763H38.6396C38.9577 88.4763 39.2682 88.4386 39.5749 88.401C40.4858 88.2698 41.3686 87.9902 42.1878 87.5734C43.3315 86.9818 44.2941 86.0957 44.9749 85.0078C46.0011 83.3376 46.4897 81.3777 46.8683 79.4817C47.194 77.8754 47.4553 76.4384 47.7582 74.5574C47.9589 73.8051 48.8943 72.7141 49.9925 72.7141C51.0906 72.7141 52.026 73.8051 52.2267 74.5574C52.5296 76.4384 52.7947 77.8754 53.1204 79.4817C53.4991 81.3626 53.9951 83.3752 55.0138 85.0417C55.6944 86.1259 56.6574 87.0072 57.8009 87.5922C58.6211 88.005 59.5037 88.282 60.4138 88.4123C60.7205 88.4499 61.0311 88.4688 61.3491 88.4763H76.4964C78.5051 88.4763 80.4315 87.6836 81.8518 86.2726C83.2721 84.8617 84.0701 82.948 84.0701 80.9526V50.8578C84.0701 48.8643 83.2737 46.9524 81.8558 45.5417C80.4379 44.1311 78.5145 43.3371 76.5078 43.3341ZM23.4923 61.1389C23.4923 60.2907 23.7455 59.4616 24.2198 58.7563C24.6942 58.0511 25.3684 57.5014 26.1572 57.1769C26.946 56.8523 27.814 56.7673 28.6514 56.9328C29.4889 57.0983 30.2581 57.5067 30.8618 58.1065C31.4655 58.7062 31.8767 59.4704 32.0433 60.3023C32.2098 61.1342 32.1244 61.9964 31.7976 62.7801C31.4709 63.5637 30.9176 64.2334 30.2076 64.7047C29.4977 65.1759 28.6631 65.4274 27.8092 65.4274C26.6643 65.4274 25.5663 64.9756 24.7567 64.1714C23.9471 63.3671 23.4923 62.2763 23.4923 61.1389ZM32.9593 80.9526C31.8359 80.9526 30.7377 80.6216 29.8036 80.0016C28.8694 79.3816 28.1414 78.5003 27.7115 77.4692C27.2815 76.4381 27.1691 75.3035 27.3882 74.2089C27.6074 73.1144 28.1484 72.1089 28.9428 71.3198C29.7372 70.5306 30.7493 69.9932 31.8512 69.7754C32.953 69.5577 34.0951 69.6695 35.1331 70.0966C36.171 70.5237 37.0581 71.2469 37.6823 72.1748C38.3064 73.1028 38.6396 74.1938 38.6396 75.3098C38.6396 76.8064 38.0411 78.2416 36.9759 79.2998C35.9106 80.3581 34.4658 80.9526 32.9593 80.9526ZM39.4613 56.7526C38.874 56.7534 38.2996 56.581 37.8109 56.2574C37.3221 55.9338 36.941 55.4734 36.7157 54.9346C36.4904 54.3957 36.4311 53.8026 36.5452 53.2302C36.6594 52.6579 36.9418 52.132 37.3569 51.7192C37.7719 51.3063 38.3009 51.0251 38.8769 50.911C39.4529 50.7969 40.0501 50.8551 40.5928 51.0782C41.1355 51.3013 41.5994 51.6793 41.9258 52.1644C42.2522 52.6495 42.4264 53.2198 42.4264 53.8033C42.4264 54.5849 42.1141 55.3345 41.5582 55.8874C41.0022 56.4404 40.248 56.7516 39.4613 56.7526ZM57.5737 53.8033C57.5737 53.2198 57.7479 52.6495 58.0743 52.1644C58.4007 51.6793 58.8646 51.3013 59.4073 51.0782C59.95 50.8551 60.5471 50.7969 61.1231 50.911C61.6992 51.0251 62.2282 51.3063 62.6432 51.7192C63.0583 52.132 63.3407 52.6579 63.4548 53.2302C63.569 53.8026 63.5096 54.3957 63.2843 54.9346C63.0591 55.4734 62.6779 55.9338 62.1892 56.2574C61.7005 56.581 61.1261 56.7534 60.5388 56.7526C59.752 56.7516 58.9979 56.4404 58.4419 55.8874C57.886 55.3345 57.5737 54.5849 57.5737 53.8033ZM67.0407 80.9526C65.9173 80.9526 64.8191 80.6216 63.885 80.0016C62.9509 79.3816 62.2228 78.5003 61.7929 77.4692C61.363 76.4381 61.2505 75.3035 61.4696 74.2089C61.6888 73.1144 62.2298 72.1089 63.0242 71.3198C63.8186 70.5306 64.8307 69.9932 65.9326 69.7754C67.0344 69.5577 68.1765 69.6695 69.2145 70.0966C70.2524 70.5237 71.1395 71.2469 71.7637 72.1748C72.3878 73.1028 72.721 74.1938 72.721 75.3098C72.721 76.8064 72.1225 78.2416 71.0573 79.2998C69.992 80.3581 68.5472 80.9526 67.0407 80.9526ZM72.1908 65.4274C71.337 65.4274 70.5024 65.1759 69.7924 64.7047C69.0825 64.2334 68.5292 63.5637 68.2025 62.7801C67.8757 61.9964 67.7902 61.1342 67.9568 60.3023C68.1234 59.4704 68.5345 58.7062 69.1382 58.1065C69.742 57.5067 70.5112 57.0983 71.3486 56.9328C72.186 56.7673 73.054 56.8523 73.8428 57.1769C74.6317 57.5014 75.3059 58.0511 75.7803 58.7563C76.2546 59.4616 76.5078 60.2907 76.5078 61.1389C76.5083 61.7022 76.397 62.2601 76.1802 62.7806C75.9634 63.3012 75.6455 63.7741 75.2445 64.1725C74.8435 64.5708 74.3674 64.8866 73.8434 65.102C73.3195 65.3173 72.7579 65.4279 72.1908 65.4274Z" fill="#BCCF00"/>
<path d="M23.4923 35.8104C27.6751 35.8104 31.0659 32.4419 31.0659 28.2867C31.0659 24.1315 27.6751 20.763 23.4923 20.763C19.3095 20.763 15.9186 24.1315 15.9186 28.2867C15.9186 32.4419 19.3095 35.8104 23.4923 35.8104Z" fill="white"/>
<path d="M76.5078 35.8104C80.6906 35.8104 84.0814 32.4419 84.0814 28.2867C84.0814 24.1315 80.6906 20.763 76.5078 20.763C72.325 20.763 68.9342 24.1315 68.9342 28.2867C68.9342 32.4419 72.325 35.8104 76.5078 35.8104Z" fill="white"/>
</svg>
