<svg width="115" height="60" viewBox="0 0 115 60" fill="none" xmlns="http://www.w3.org/2000/svg">
<path fill-rule="evenodd" clip-rule="evenodd" d="M55.8904 35.7496C49.9402 52.0079 38.022 62.6136 29.2705 59.4381C20.5189 56.2627 18.248 40.5086 24.1982 24.2504C30.1484 7.99215 42.0665 -2.61356 50.8181 0.561869C59.5696 3.7373 61.8406 19.4914 55.8904 35.7496ZM36.0535 26.0174C36.7205 26.3594 36.9827 27.1749 36.6393 27.839C36.1066 28.8691 35.2578 30.6327 34.9335 32.2501C34.7707 33.0619 34.7698 33.7003 34.9006 34.1435C35.0096 34.5127 35.2095 34.7731 35.655 34.9476C36.2223 35.1698 36.9543 35.19 37.8404 35.0302C38.7198 34.8717 39.6152 34.5626 40.4621 34.254C42.3499 33.5661 44.086 32.6407 45.9231 31.6616C46.47 31.3701 47.0258 31.0738 47.5972 30.7776C48.2626 30.4327 49.0829 30.6903 49.4292 31.3528C49.7756 32.0154 49.517 32.832 48.8516 33.1769C48.3448 33.4396 47.8313 33.7135 47.3104 33.9914L47.3094 33.992L47.3089 33.9922C45.4429 34.9877 43.4815 36.0341 41.3958 36.7941C40.5478 37.1031 39.4572 37.4876 38.3245 37.6918C37.1985 37.8949 35.8924 37.9473 34.6604 37.4647C33.3848 36.965 32.6242 36.0242 32.2942 34.9062C31.9861 33.8622 32.0676 32.7273 32.2695 31.7205C32.6745 29.7005 33.684 27.6451 34.2241 26.6007C34.5675 25.9366 35.3866 25.6755 36.0535 26.0174ZM31.5901 22.8936C36.3049 22.7719 40.9778 22.8153 45.7122 22.8939C46.4622 22.9064 47.0804 22.311 47.0929 21.5642C47.1054 20.8173 46.5075 20.2018 45.7574 20.1894C41.0138 20.1107 36.2942 20.0664 31.5197 20.1896C30.7698 20.209 30.1777 20.83 30.1971 21.5767C30.2166 22.3234 30.8402 22.913 31.5901 22.8936Z" fill="#FFCD1B"/>
<path d="M7.21097 36.9877H0.40625V23.1198H7.07832C7.13138 23.8726 6.95894 24.6651 6.33551 26.1443L6.58753 26.2896C8.35172 23.7934 9.91694 22.8821 12.3443 22.8821C14.8248 22.8821 16.1115 24.1368 15.9921 26.4217L16.2574 26.5009C17.8359 24.0047 19.547 22.8821 22.1866 22.8821C25.0651 22.8821 26.5109 24.2953 26.5109 27.2274V36.9877H19.7194V28.9576C19.7194 27.9406 19.3348 27.4519 18.5389 27.4519C17.4645 27.4519 16.8543 28.4953 16.8543 30.4104V36.9877H10.0628V28.9576C10.0628 27.9406 9.69144 27.4519 8.92209 27.4519C7.82114 27.4519 7.21097 28.4953 7.21097 30.4104V36.9877Z" fill="white"/>
<path d="M104.352 36.9876H97.547V18.4971H104.352V22.3801C104.352 23.6612 104.1 24.731 103.476 26.131L103.742 26.2631C105.134 23.9782 106.978 22.882 109.671 22.882C112.775 22.882 114.406 24.2556 114.406 27.0952V36.9876H107.602V28.9178C107.602 27.8348 107.177 27.3197 106.262 27.3197C105.028 27.3197 104.352 28.4952 104.352 30.6216V36.9876Z" fill="white"/>
<path d="M88.2618 37.384C82.4917 37.384 80.1174 35.7726 80.1969 32.7217L86.7496 32.4179C86.6568 33.4481 87.1741 33.9368 88.2353 33.9368C89.124 33.9368 89.5882 33.7123 89.5882 33.2632C89.5882 32.6821 88.7393 32.3519 86.7098 31.8764L84.6671 31.3877C82.6244 30.9123 80.3561 29.9217 80.3561 27.4783C80.3561 24.4934 82.757 22.75 88.0628 22.75C93.5809 22.75 95.9818 24.3349 95.9287 27.1085L89.6015 27.4255C89.6944 26.5009 89.1903 26.0783 88.0761 26.0783C87.2935 26.0783 86.9088 26.316 86.9088 26.7519C86.9088 27.2009 87.5057 27.4915 89.5484 27.9142L91.6045 28.35C93.6605 28.7726 96.393 29.6311 96.393 32.5368C96.393 35.667 93.9258 37.384 88.2618 37.384Z" fill="white"/>
<path d="M59.7563 36.9877H52.9515V23.1198H59.6236C59.6767 23.8726 59.5042 24.6651 58.8808 26.1443L59.1328 26.2896C60.897 23.7934 62.4622 22.8821 64.8896 22.8821C67.3701 22.8821 68.6568 24.1368 68.5374 26.4217L68.8027 26.5009C70.3812 24.0047 72.0923 22.8821 74.7319 22.8821C77.6103 22.8821 79.0562 24.2953 79.0562 27.2274V36.9877H72.2647V28.9576C72.2647 27.9406 71.8801 27.4519 71.0842 27.4519C70.0098 27.4519 69.3996 28.4953 69.3996 30.4104V36.9877H62.6081V28.9576C62.6081 27.9406 62.2367 27.4519 61.4674 27.4519C60.3664 27.4519 59.7563 28.4953 59.7563 30.4104V36.9877Z" fill="white"/>
</svg>
