<svg width="216" height="61" viewBox="0 0 216 61" fill="none" xmlns="http://www.w3.org/2000/svg">
<ellipse cx="34.6538" cy="30.1064" rx="14.3172" ry="26.7125" transform="rotate(20.0221 34.6538 30.1064)" fill="#FFCD1B"/>
<path d="M7.14375 36.3093H1.36719V24.4859H7.03114C7.07618 25.1277 6.9298 25.8033 6.40056 27.0645L6.61451 27.1884C8.11213 25.0602 9.44086 24.2832 11.5015 24.2832C13.6072 24.2832 14.6994 25.3529 14.5981 27.301L14.8233 27.3685C16.1633 25.2403 17.6159 24.2832 19.8567 24.2832C22.3002 24.2832 23.5275 25.4881 23.5275 27.9879V36.3093H17.7623V29.463C17.7623 28.5959 17.4357 28.1793 16.7601 28.1793C15.848 28.1793 15.33 29.0689 15.33 30.7016V36.3093H9.56472V29.463C9.56472 28.5959 9.24943 28.1793 8.59633 28.1793C7.66172 28.1793 7.14375 29.0689 7.14375 30.7016V36.3093Z" fill="white"/>
<path d="M89.2446 36.3089H83.468V20.5444H89.2446V23.855C89.2446 24.9472 89.0306 25.8593 88.5014 27.0529L88.7266 27.1655C89.9089 25.2175 91.4741 24.2829 93.76 24.2829C96.3949 24.2829 97.7799 25.4539 97.7799 27.8749V36.3089H92.0034V29.4288C92.0034 28.5055 91.643 28.0663 90.8661 28.0663C89.8188 28.0663 89.2446 29.0685 89.2446 30.8814V36.3089Z" fill="white"/>
<path d="M75.586 36.6464C70.6877 36.6464 68.6721 35.2726 68.7397 32.6715L74.3023 32.4125C74.2235 33.2908 74.6626 33.7074 75.5634 33.7074C76.3179 33.7074 76.712 33.516 76.712 33.1332C76.712 32.6377 75.9913 32.3562 74.2685 31.9508L72.5344 31.5342C70.8003 31.1288 68.8748 30.2843 68.8748 28.2011C68.8748 25.6563 70.9129 24.1699 75.4171 24.1699C80.1014 24.1699 82.1395 25.5212 82.0944 27.8858L76.7233 28.1561C76.8021 27.3679 76.3742 27.0075 75.4283 27.0075C74.764 27.0075 74.4374 27.2102 74.4374 27.5818C74.4374 27.9647 74.9441 28.2124 76.6782 28.5727L78.4236 28.9443C80.1689 29.3046 82.4886 30.0366 82.4886 32.5138C82.4886 35.1825 80.3941 36.6464 75.586 36.6464Z" fill="white"/>
<path d="M51.3874 36.3088H45.6108V24.4854H51.2748C51.3198 25.1272 51.1735 25.8029 50.6442 27.064L50.8582 27.1879C52.3558 25.0597 53.6845 24.2827 55.7452 24.2827C57.8508 24.2827 58.9431 25.3524 58.8417 27.3005L59.067 27.3681C60.4069 25.2398 61.8595 24.2827 64.1003 24.2827C66.5438 24.2827 67.7712 25.4876 67.7712 27.9874V36.3088H62.0059V29.4625C62.0059 28.5954 61.6794 28.1788 61.0037 28.1788C60.0916 28.1788 59.5737 29.0684 59.5737 30.7011V36.3088H53.8084V29.4625C53.8084 28.5954 53.4931 28.1788 52.84 28.1788C51.9054 28.1788 51.3874 29.0684 51.3874 30.7011V36.3088Z" fill="white"/>
<path d="M209.181 36.309H203.404V24.4856H209.068C209.113 25.2963 208.944 25.9607 208.438 27.0417L208.652 27.1881C210.296 24.9135 211.275 24.2942 213.28 24.0239L213.696 28.7082C209.552 29.0348 209.181 29.2712 209.181 32.4804V36.309Z" fill="#FFCD1B"/>
<path d="M202.222 30.0371C202.222 30.5326 202.188 31.028 202.109 31.5347H193.338C193.383 32.7846 193.912 33.3927 194.936 33.3927C195.792 33.3927 196.265 33.0211 196.378 32.109L202.076 32.4581C201.704 35.2169 199.283 36.6469 194.914 36.6469C189.971 36.6469 187.493 34.575 187.493 30.5663V30.2848C187.493 26.2424 189.993 24.1479 194.959 24.1479C199.778 24.1479 202.222 26.1861 202.222 30.0371ZM193.371 28.9674H196.367V28.9336C196.367 27.8864 195.882 27.3909 194.903 27.3909C194.013 27.3909 193.506 27.9202 193.371 28.9674Z" fill="#FFCD1B"/>
<path d="M177.832 36.3093H172.055V24.4859H177.708C177.719 25.3417 177.596 25.9047 177.089 27.0532L177.314 27.1771C178.496 25.2291 180.062 24.2832 182.347 24.2832C184.982 24.2832 186.367 25.4543 186.367 27.8753V36.3093H180.591V29.4179C180.591 28.4946 180.23 28.0554 179.453 28.0554C178.406 28.0554 177.832 29.0689 177.832 30.8818V36.3093Z" fill="#FFCD1B"/>
<path d="M163.745 32.8519L166.414 33.0659C169.094 33.2911 171.38 33.7753 171.38 36.6016C171.38 39.5293 169.128 40.5878 163.43 40.5878C158.228 40.5878 156.111 40.0248 156.111 38.1555C156.111 37.0633 156.786 36.3989 158.689 36.2075V35.9147C157.327 35.5094 156.505 34.7887 156.505 33.5838C156.505 32.3902 157.259 31.6808 159.185 31.4894V31.2192C157.631 30.5773 156.843 29.5076 156.843 28.0325C156.843 25.4764 159.196 24.1477 163.79 24.1477C164.601 24.1477 165.344 24.1927 166.02 24.2715C165.153 21.8618 166.617 20.2966 170.366 20.2065L170.682 23.7873C168.182 23.9112 167.45 24.0801 167.427 24.5418C169.601 25.1048 170.704 26.2759 170.704 28.0325C170.704 30.5886 168.373 31.9173 163.79 31.9173C162.766 31.9173 161.854 31.8497 161.054 31.7259C160.784 31.7934 160.671 31.906 160.671 32.0862C160.671 32.4691 161.065 32.6267 163.745 32.8519ZM163.79 26.8501C162.89 26.8501 162.495 27.2217 162.495 28.0325C162.495 28.8432 162.89 29.2148 163.79 29.2148C164.669 29.2148 165.052 28.8432 165.052 28.0325C165.052 27.2217 164.669 26.8501 163.79 26.8501ZM163.813 37.5137C166.639 37.5137 167.056 37.4461 167.056 37.052C167.056 36.7255 166.594 36.6241 164.027 36.4777L161.46 36.3314C161.189 36.3201 160.93 36.2976 160.683 36.2751C160.356 36.4214 160.221 36.6129 160.221 36.8268C160.221 37.4461 160.93 37.5137 163.813 37.5137Z" fill="#FFCD1B"/>
<path d="M155.424 23.6973H149.647V20.5444H155.424V23.6973ZM155.424 36.3089H149.647V24.4856H155.424V36.3089Z" fill="#FFCD1B"/>
<path d="M141.765 36.6464C136.867 36.6464 134.851 35.2726 134.919 32.6715L140.481 32.4125C140.403 33.2908 140.842 33.7074 141.743 33.7074C142.497 33.7074 142.891 33.516 142.891 33.1332C142.891 32.6377 142.171 32.3562 140.448 31.9508L138.714 31.5342C136.98 31.1288 135.054 30.2843 135.054 28.2011C135.054 25.6563 137.092 24.1699 141.596 24.1699C146.281 24.1699 148.319 25.5212 148.274 27.8858L142.902 28.1561C142.981 27.3679 142.553 27.0075 141.608 27.0075C140.943 27.0075 140.617 27.2102 140.617 27.5818C140.617 27.9647 141.123 28.2124 142.857 28.5727L144.603 28.9443C146.348 29.3046 148.668 30.0366 148.668 32.5138C148.668 35.1825 146.573 36.6464 141.765 36.6464Z" fill="#FFCD1B"/>
<path d="M134.142 30.0371C134.142 30.5326 134.108 31.028 134.029 31.5347H125.257C125.302 32.7846 125.832 33.3927 126.856 33.3927C127.712 33.3927 128.185 33.0211 128.298 32.109L133.995 32.4581C133.624 35.2169 131.203 36.6469 126.834 36.6469C121.891 36.6469 119.413 34.575 119.413 30.5663V30.2848C119.413 26.2424 121.913 24.1479 126.879 24.1479C131.698 24.1479 134.142 26.1861 134.142 30.0371ZM125.291 28.9674H128.286V28.9336C128.286 27.8864 127.802 27.3909 126.823 27.3909C125.933 27.3909 125.426 27.9202 125.291 28.9674Z" fill="#FFCD1B"/>
<path d="M108.356 36.5116C105.203 36.5116 103.671 34.5973 103.671 30.6675V30.127C103.671 26.1521 105.203 24.2829 108.356 24.2829C110.518 24.2829 111.925 25.24 112.849 27.1205L113.074 26.9966C112.623 25.6904 112.443 24.722 112.443 23.4609V20.5444H118.22V36.3089H112.454C112.477 35.7797 112.668 34.9126 113.085 33.7303L112.849 33.629C111.97 35.5094 110.585 36.5116 108.356 36.5116ZM110.901 33.1335C111.936 33.1335 112.443 32.3678 112.443 30.7913V29.9581C112.443 28.3704 111.936 27.5934 110.901 27.5934C109.921 27.5934 109.448 28.3253 109.448 29.8455V30.904C109.448 32.4128 109.921 33.1335 110.901 33.1335Z" fill="#FFCD1B"/>
<path fill-rule="evenodd" clip-rule="evenodd" d="M31.266 26.7112C31.8322 27.0027 32.0548 27.698 31.7633 28.2642C31.311 29.1424 30.5905 30.646 30.3152 32.0249C30.177 32.7171 30.1762 33.2614 30.2873 33.6392C30.3798 33.954 30.5495 34.176 30.9277 34.3248C31.4093 34.5142 32.0307 34.5315 32.7829 34.3952C33.5294 34.26 34.2895 33.9966 35.0085 33.7334C36.611 33.147 38.0848 32.358 39.6443 31.5232C40.1086 31.2747 40.5804 31.0221 41.0655 30.7696C41.6304 30.4755 42.3267 30.6951 42.6207 31.26C42.9148 31.8248 42.6952 32.5211 42.1303 32.8152C41.6998 33.0393 41.2634 33.2731 40.8207 33.5103C39.2367 34.359 37.5716 35.2511 35.8011 35.8991C35.0812 36.1625 34.1554 36.4903 33.1939 36.6644C32.238 36.8375 31.1292 36.8822 30.0834 36.4708C29.0005 36.0447 28.3549 35.2426 28.0747 34.2895C27.8131 33.3994 27.8824 32.4318 28.0537 31.5734C28.3976 29.8512 29.2545 28.0989 29.713 27.2084C30.0045 26.6423 30.6998 26.4196 31.266 26.7112Z" fill="black"/>
<path fill-rule="evenodd" clip-rule="evenodd" d="M39.4654 24.0478C35.4464 23.9808 31.4795 23.9438 27.4771 24.0475C26.8405 24.064 26.3111 23.5614 26.2946 22.9247C26.2781 22.2881 26.7808 21.7587 27.4174 21.7422C31.4704 21.6371 35.477 21.6749 39.5038 21.742C40.1406 21.7526 40.6481 22.2774 40.6375 22.9141C40.6269 23.5508 40.1021 24.0584 39.4654 24.0478Z" fill="black"/>
</svg>
