<svg width="199" height="81" viewBox="0 0 199 81" fill="none" xmlns="http://www.w3.org/2000/svg">
<path d="M62.9568 46.6424C56.2219 65.1241 42.7321 77.1802 32.8264 73.5705C22.9208 69.9608 20.3503 52.0522 27.0852 33.5705C33.8201 15.0888 47.3099 3.03268 57.2156 6.64238C67.1212 10.2521 69.6916 28.1607 62.9568 46.6424Z" fill="#FFCD1B"/>
<path d="M7.85784 48.0499H0.155762V32.2854H7.7077C7.76776 33.1412 7.57258 34.042 6.86693 35.7235L7.15219 35.8887C9.14902 33.0511 10.9207 32.0151 13.6682 32.0151C16.4758 32.0151 17.9321 33.4414 17.797 36.0388L18.0972 36.1289C19.8839 33.2913 21.8207 32.0151 24.8084 32.0151C28.0664 32.0151 29.7029 33.6216 29.7029 36.9547V48.0499H22.0158V38.9215C22.0158 37.7654 21.5804 37.2099 20.6796 37.2099C19.4635 37.2099 18.7729 38.396 18.7729 40.573V48.0499H11.0858V38.9215C11.0858 37.7654 10.6654 37.2099 9.79462 37.2099C8.54847 37.2099 7.85784 38.396 7.85784 40.573V48.0499Z" fill="white"/>
<path d="M117.809 48.0496H110.107V27.0303H117.809V31.4443C117.809 32.9007 117.524 34.1168 116.818 35.7082L117.118 35.8584C118.695 33.261 120.782 32.0149 123.83 32.0149C127.343 32.0149 129.189 33.5763 129.189 36.8043V48.0496H121.487V38.8762C121.487 37.645 121.007 37.0595 119.971 37.0595C118.575 37.0595 117.809 38.3957 117.809 40.8129V48.0496Z" fill="white"/>
<path d="M99.5974 48.5C93.0664 48.5 90.3789 46.6683 90.469 43.2002L97.8858 42.8548C97.7807 44.0259 98.3662 44.5814 99.5673 44.5814C100.573 44.5814 101.099 44.3262 101.099 43.8157C101.099 43.1551 100.138 42.7798 97.8408 42.2393L95.5286 41.6838C93.2165 41.1433 90.6491 40.0172 90.6491 37.2397C90.6491 33.8466 93.3666 31.8647 99.3722 31.8647C105.618 31.8647 108.335 33.6664 108.275 36.8193L101.114 37.1796C101.219 36.1287 100.648 35.6482 99.3872 35.6482C98.5014 35.6482 98.066 35.9185 98.066 36.4139C98.066 36.9244 98.7416 37.2547 101.054 37.7351L103.381 38.2306C105.708 38.711 108.801 39.6869 108.801 42.99C108.801 46.5482 106.008 48.5 99.5974 48.5Z" fill="white"/>
<path d="M67.3324 48.0499H59.6304V32.2854H67.1823C67.2424 33.1412 67.0472 34.042 66.3415 35.7235L66.6268 35.8887C68.6236 33.0511 70.3953 32.0151 73.1428 32.0151C75.9504 32.0151 77.4067 33.4414 77.2716 36.0388L77.5719 36.1289C79.3585 33.2913 81.2953 32.0151 84.283 32.0151C87.541 32.0151 89.1775 33.6216 89.1775 36.9547V48.0499H81.4905V38.9215C81.4905 37.7654 81.0551 37.2099 80.1542 37.2099C78.9381 37.2099 78.2475 38.396 78.2475 40.573V48.0499H70.5604V38.9215C70.5604 37.7654 70.14 37.2099 69.2692 37.2099C68.0231 37.2099 67.3324 38.396 67.3324 40.573V48.0499Z" fill="white"/>
<path d="M190.615 48.2626C188.393 48.2626 187.447 46.8363 188.243 44.6293L192.327 33.444H190.135L190.57 32.2579H192.762L194.278 28.0841L195.915 27.6187L194.233 32.2579H198.422L198.002 33.444H193.798L189.669 44.7944C189.144 46.2808 189.579 46.9714 191.035 46.9714C191.576 46.9714 192.357 46.8663 193.047 46.506L192.657 47.7522C192.071 48.1125 191.366 48.2626 190.615 48.2626Z" fill="#FFCD1B"/>
<path d="M180.451 48.2779C177.478 48.2779 175.166 46.4312 176.457 42.0922L177.868 41.867C176.607 45.8907 178.153 47.2119 180.496 47.2119C182.237 47.2119 183.468 46.251 183.588 44.5995C183.694 43.3834 183.288 42.4075 182.147 40.9061L180.991 39.3897C179.865 37.8883 179.46 36.8224 179.595 35.5912C179.775 33.5343 181.171 32.0029 183.664 32.0029C186.366 32.0029 188.228 33.7295 187.147 37.558L185.75 37.7532C186.801 34.3151 185.585 33.0539 183.649 33.0539C181.952 33.0539 180.916 33.9998 180.781 35.5011C180.691 36.447 180.961 37.1827 182.087 38.654L183.198 40.0954C184.324 41.5517 184.97 42.8879 184.85 44.4944C184.654 46.7465 183.063 48.2779 180.451 48.2779Z" fill="#FFCD1B"/>
<path d="M178.349 29.7659H176.322L177.133 27.5288H179.16L178.349 29.7659ZM171.443 48.0226H169.971L175.706 32.2582H177.178L171.443 48.0226Z" fill="#FFCD1B"/>
<path d="M165.332 48.2626C163.11 48.2626 162.164 46.8363 162.96 44.6293L167.043 33.444H164.851L165.287 32.2579H167.479L168.995 28.0841L170.632 27.6187L168.95 32.2579H173.139L172.719 33.444H168.515L164.386 44.7944C163.86 46.2808 164.296 46.9714 165.752 46.9714C166.293 46.9714 167.073 46.8663 167.764 46.506L167.374 47.7522C166.788 48.1125 166.083 48.2626 165.332 48.2626Z" fill="#FFCD1B"/>
<path d="M153.306 48.0223H151.834L157.57 32.2578H159.146C158.906 33.1286 158.531 33.7442 157.029 36.0413L157.284 36.2064C159.356 33.1436 160.948 32.0026 163.605 31.8975L163.545 33.2637C159.957 33.3838 157.915 35.3056 156.309 39.7497L153.306 48.0223Z" fill="#FFCD1B"/>
<path d="M142.841 48.2779C140.709 48.2779 139.493 46.8816 140.289 44.7196L140.484 44.1641C141.4 41.6418 143.742 40.2305 146.745 39.2996L149.732 38.3838L150.348 36.6872C151.294 34.1499 150.003 33.0539 148.291 33.0539C146.099 33.0539 145.123 34.3901 144.252 37.8733L142.961 37.3929C143.952 33.6845 145.453 32.0029 148.411 32.0029C150.979 32.0029 152.9 33.8346 151.744 36.9875L148.681 45.3802C148.171 46.8065 148.231 46.9417 149.732 47.0467L149.162 48.2479C149.087 48.2629 148.862 48.2779 148.681 48.2779C146.64 48.2779 146.79 47.1518 148.306 44.4043L148.051 44.2992C146.565 46.8966 144.928 48.2779 142.841 48.2779ZM143.216 47.1068C145.198 47.1068 147.33 44.9748 148.576 41.6268L149.297 39.69L146.97 40.3956C144.658 41.1163 142.676 42.1523 141.925 44.2242L141.715 44.7947C141.235 46.1609 141.925 47.1068 143.216 47.1068Z" fill="#FFCD1B"/>
<path fill-rule="evenodd" clip-rule="evenodd" d="M40.5043 35.5791C41.2591 35.9678 41.556 36.8949 41.1673 37.6498C40.5643 38.8208 39.6036 40.8255 39.2365 42.6641C39.0523 43.587 39.0512 44.3127 39.1993 44.8165C39.3226 45.2362 39.5489 45.5321 40.0532 45.7305C40.6953 45.9832 41.5238 46.0061 42.5268 45.8245C43.5221 45.6442 44.5356 45.2929 45.4943 44.9421C47.6309 44.1601 49.596 43.1082 51.6754 41.9951C52.2944 41.6638 52.9235 41.327 53.5703 40.9903C54.3234 40.5983 55.2518 40.891 55.6439 41.6441C56.0359 42.3973 55.7432 43.3257 54.99 43.7177C54.4159 44.0166 53.8341 44.3283 53.2439 44.6445C51.1318 45.7762 48.9118 46.9656 46.551 47.8296C45.5912 48.1809 44.3568 48.6179 43.0747 48.8501C41.8003 49.0809 40.3218 49.1405 38.9274 48.5919C37.4836 48.0238 36.6227 46.9544 36.2492 45.6835C35.9004 44.4967 35.9927 43.2066 36.2212 42.0621C36.6797 39.7658 37.8222 37.4294 38.4336 36.2421C38.8223 35.4872 39.7494 35.1904 40.5043 35.5791Z" fill="black"/>
<path fill-rule="evenodd" clip-rule="evenodd" d="M51.4366 32.0285C46.0779 31.9392 40.7888 31.8899 35.4523 32.0282C34.6035 32.0502 33.8975 31.38 33.8755 30.5312C33.8535 29.6824 34.5238 28.9764 35.3726 28.9544C40.7766 28.8143 46.1187 28.8646 51.4878 28.9541C52.3368 28.9683 53.0136 29.668 52.9994 30.5169C52.9853 31.3659 52.2856 32.0427 51.4366 32.0285Z" fill="black"/>
</svg>
